<?xml version="1.0" encoding="UTF-8"?>
<svg version="1.1" viewBox="0 0 1600 1600" width="1280" height="1280" xmlns="http://www.w3.org/2000/svg">
<path transform="translate(1211,207)" d="m0 0h10l5 3 1 2v7l-7 14-10 14-11 17-22 33-21 32-16 23-29 44-10 15-11 17-36 54-16 25-10 14-7 11-13 19-12 17-15 22-9 8-5 1v133l1 24 3 10 6 8 2 1 1-168 2-5 23-1h99l17 1 25 5 19 7 13 7 11 8 9 8 9 12 8 16 4 15 2 18v10l-3 20-6 15-7 11-9 10-14 10-6 3h-2v3l5 2 14 7 10 9 8 8 8 14 5 15 2 13v12l-1 12-5 19-8 16-9 13-8 8-15 10-17 8-13 4-13 3-23 3-18 1-35 1 2 13v26l-2 12-5 14-6 11-9 11-10 7-29 14-24 11-54 27-33 15-33 16-28 13-25 12-26 12-72 34-56 26-34 16-18 8-14 7-28 13-29 14-46 22-28 13-17 8-16 8-9 3h-13l-5-5 1-9 8-13 7-10 15-24 12-17 11-17 13-19 29-43 14-22 11-16 28-42 10-16 7-10 18-27 22-34 11-16 16-23 11-18 1-5-15-1-5-3-1-2v-63l-134 1-1 64-2 2-43 1-20-1-2-3v-129h202l-1-117-3-9-10-19-11-23-18-38-13-27-6-16-2-8-1-13 2-12 5-12 7-11 11-11 14-9 23-12 37-18 33-15 28-13 46-22 28-13 34-16 35-17 26-12 33-15 27-13 48-23 32-15 28-13 39-19 28-13 27-13 33-15 27-13zm-164 457v82h62l11-2 11-4 10-6 8-8 4-10 1-4v-12l-3-10-5-8-5-5-8-6-13-5-12-2zm-53 148-1 2 7 12 15 33 15 32 10 22 4 8 3 2 1-1 1-29h18l47-1 18-4 13-7 7-7 6-12v-22l-5-10-8-8-12-6-9-3-6-1zm-307 46-1 3v25l2 16 2 1 5-16 2-6-1-8-6-14z" fill="#1C80BF"/>
<path transform="translate(1e3 601)" d="m0 0h99l17 1 25 5 19 7 13 7 11 8 9 8 9 12 8 16 4 15 2 18v10l-3 20-6 15-7 11-9 10-14 10-6 3h-2v3l5 2 14 7 10 9 8 8 8 14 5 15 2 13v12l-1 12-5 19-8 16-9 13-8 8-15 10-17 8-13 4-13 3-23 3-18 1-35 1 2 13v26l-1-4h-2v7l-3 7-1 5h-2l-3 9-8 13-6 7h-2v2l-10 6h-4l-7 3h-4v2h-3v2l-4 1-3 2h-3v2l-8 2v2l-11 4-2 2-10 4-7 3-13 7h-3v2l-5 3-7 2v2l-10 4-5 1v2l-8 4h-3v2l-6 2-12 6-1 2-6 1-1 2-8 1v2l-12 5-3 2-7 2-8 4h-2l-1 3-9 2v2l-2 2-4 2-5 2-6 2-7 2-3-1-1 3-5 1v2h-3l-1 2-10 5-4-1-4 3-10 3-7 4-12 6-5 3-5 2-3 4-10 6h-4l2-7 3-1v-2h2v-3h2l2-4 7-10 4-7 5-8 10-23 5-16 4-22 1-10-1-26-4-27-5-21-8-20-9-20-13-29-12-26-2-8h4v2l4 2 6 4v2h2l1-2 7 8 12 10 15 9 19 8 19 5 12 2 14 1h18l24-3 19-5 15-6 15-8 12-9 14-14 9-14 7-15 4-13 3-20 1-92 6 12 4 5 2 1 1-168 2-5zm42 63v82h62l11-2 11-4 10-6 8-8 4-10 1-4v-12l-3-10-5-8-5-5-8-6-13-5-12-2zm-53 148-1 2 7 12 15 33 15 32 10 22 4 8 3 2 1-1 1-29h18l47-1 18-4 13-7 7-7 6-12v-22l-5-10-8-8-12-6-9-3-6-1z" fill="#2DA5CF"/>
<path transform="translate(1e3 601)" d="m0 0h99l17 1 25 5 19 7 13 7 11 8 9 8 9 12 8 16 4 15 2 18v10l-3 20-6 15-7 11-9 10-14 10-6 3h-2v3l5 2 14 7 10 9 8 8 8 14 5 15 2 13v12l-1 12-5 19-8 16-9 13-8 8-15 10-17 8-13 4-13 3-23 3-18 1h-47l-1-1v-55l1-8 18-1 47-1 18-4 13-7 8-9 4-9v-22l-5-10-7-7-12-6-9-3-6-1h-125l-13-1-1-57 1-148 2-5zm42 63v82h62l11-2 11-4 10-6 8-8 4-10 1-4v-12l-3-10-5-8-5-5-8-6-13-5-12-2z" fill="#FDFDFD"/>
<path transform="translate(905,601)" d="m0 0h60l2 3v128l1 25-1 92-3 20-6 18-9 17-8 10-14 14-15 10-19 9-20 6-18 3-11 1h-18l-20-2-22-5-20-8-14-8-14-11-8-8-10-13-8-14-6-18-4-22-1-27v-76l1-79h67l1 171 3 14 6 12 8 10 13 9 12 5 14 3h20l15-3 14-6 10-7 8-9 5-11 2-7 1-8v-231l2-5z" fill="#FEFEFE"/>
<path transform="translate(605,1031)" d="m0 0 12 3 8 4 15 4 13 5 14 3 11 8 5 7 3 1 6 16 2 11 3 21 1 14-3 21-5 19-3 9-9 21-8 14-10 13 1 2-29 14-28 13-34 16-27 13-28 13-21 10-12 6-28 13-17 8-16 8-9 3h-13l-5-5 1-9 8-13 7-10 15-24 12-17 11-17 13-19 29-43 14-22 11-16 28-42 10-16 7-10 2-2-1 5-8 11-1 3 7-9 9-13 7-10 22-33z" fill="#1C80BF"/>
<path transform="translate(621,601)" d="m0 0h62l3 2 1 284-1 67-2 2-19 1h-41l-5-3-1-2v-63l-134 1-1 64-2 2-43 1-20-1-2-3v-129h202l-1-120 1-101z" fill="#FEFEFE"/>
<path transform="translate(1211,207)" d="m0 0h10l5 3 1 2v7l-7 14-10 14-11 17-22 33-21 32-16 23-29 44-10 15-11 17-26 39-3 3v-2l-4 1-1 3h-2l-1 4h-2l-2 5-8 10-4 1-12 7-6-2-2-2-9-3-4-5v-2l-7-2-10-9-4-6-3-2-4-8-3-5-1-7-4-8-1-9-4-10v-2h-2l-4-5-6-4-5-7-3-15v-10l4-12 4-8 4-10 7-11 7-9 3-1 1-3h3v-2l-4 1v-2l23-11 14-7 26-12 31-15 28-13 31-15 28-13 34-16 20-9z" fill="#1C80BF"/>
<path transform="translate(970,320)" d="m0 0h6v2l-3 1-5 5-10 14-4 9-2 5-4 8-4 13v9l2 12 4 8 5 4 6 5v2h2l4 8 2 9 1 7 3 5 2 9 5 8v3l4 2 7 9 6 5 7 3 5 7 9 3 5 3 5-2 9-5 5-2 9-13 2-1 1-3h2l1-4 2-2v2h2l-1 5-15 23-30 45-12 17-13 19-10 14-8 7-5 1v5l-2-2h-60l-6 3-2 4-3-12-4-7-15-40-4-14-5-22-2-23v-36l5-24 6-19 2-6 1-4 6-12 1-3h2l1-6h2l1-5-2-2-8 3-5 1-12 5-12 4-8 2-15 6-7 4h-2l-1 3-7 1-1 3-8 3-10 6-7 4-4 2-9 3-28 14-13 5-32 16-14 8-10 6-25 9-12 5h-3v2h-3v2l-14 9-7 3-9 4-7 2-1 2-7 3-10 10-6 7-7 14v7l1 3-2 10v11l2 9 6 13 5 11 11 22v2l3-1v2l2-1 1-5 5 1 9 1 2-7 1-3 1-11 2-4h3v96l-3-3-10-19-11-23-18-38-13-27-6-16-2-8-1-13 2-12 5-12 7-11 11-11 14-9 23-12 37-18 33-15 28-13 46-22 28-13 34-16 35-17 26-12 33-15 27-13 23-11z" fill="#12559A"/>
<path transform="translate(687,603)" d="m0 0 4 4 2 6 5 12 3 3 7 4 5 3 4 8v12l2 3v4l-10 2-9 1-1 2-1 23-1 67 1 64 2 26 1 1 4 22 6 18 8 14 8 10v3h-2l-4-4-6-4v-2l-3 2 6 15 15 32 8 18 11 25 6 18 5 26 2 15 1 26-3 21-3 14-6 18-6 14-2 1-1 5-8 13-8 11-2 3h-2v3h-2v2l-3 3-2 5 8-3 3-3 4-2 4-4 26-13 7-3 5-2 6-3 2 2 10-6h3v-2l5-2 1-2 9-1 2-2 6-2 7-2 1-2h2v-2l9-3 4-4 7-3 9-3 10-5h3v-2l9-3 5-2 5-4 9-4h3l1-2 2 1v-2l9-4h2v-2l9-4h2l1-2 3 1v-2l8-4 4-1v-2l16-8 5-2 8-4 5-2 5-3 7-1v-2l8-2v-2l8-4 2 1v-2h3v-2l11-4 3 1 9-6h2v-2l4-4h2l2-4 7-12 4-9h2v-5l3-9 1-5h2v12l-4 13-8 16-9 11-10 7-29 14-24 11-54 27-33 15-33 16-28 13-25 12-26 12-72 34-43 20h-5l6-9 7-10 8-16 7-17 2-6 5-19 3-21-1-14-3-21-3-14-4-11v-2l-4-1-6-8-9-6-17-4-16-6-11-3-6-3-12-3-8 1-2 4-9 14-10 15-21 30h-2l-2 4v-3l8-12 5-10 14-21 22-34 11-16 16-23 11-18 1-6 45-2 1-1 1-67h1l2 15 7-21-1-8-6-14v-2h-2z" fill="#12559A"/>
<path transform="translate(1037,943)" d="m0 0 2 2-1 2h2v5l1 4 4-1 1-5h1v6l14 1 1 9 1 5v26l-1-4h-2v7l-3 7-1 5h-2l-3 9-8 13-6 7h-2v2l-10 6h-4l-7 3h-4v2h-3v2l-4 1-3 2h-3v2l-8 2v2l-11 4-2 2-10 4-7 3-13 7h-3v2l-5 3-7 2v2l-10 4-5 1v2l-8 4h-3v2l-6 2-12 6-1 2-6 1-1 2-8 1v2l-12 5-3 2-7 2-8 4h-2l-1 3-9 2v2l-2 2-4 2-5 2-6 2-7 2-3-1-1 3-5 1v2h-3l-1 2-10 5-4-1-4 3-10 3-7 4-12 6-5 3-5 2-3 4-10 6h-4l2-7 3-1v-2h2v-3h2l2-4 7-10 4-7 5-8 10-23 5-16 4-22 1-10-1-26-4-27-5-21-4-12h2l7 20 3 13 4 26 2 21 2 7 1 1 9-1 12-5 6-4 8-4 14-9 9-6 8-7 8-6 8-7h2l1-3 2 4-1 5-3 5 5-3h2l1 2 8-8 2 1-3 4-1 4 8-4v2h-2v4l6-2v-2l8-6h3l-7 6 6-2v-2l13-8 12-6 6-5 10-4 8-6 9-5 10-6 6-4 7-3 8-5 4-3 2 1-3 3 8-6 8-4v-3l5-5 4-1 5-5 1-2h2l2-4 10-6h2v-3l3-1 2-4h2z" fill="#1C80BF"/>
<path transform="translate(421,601)" d="m0 0h56l6 2v151l-1 1h-66v-153z" fill="#FDFDFD"/>
<path transform="translate(483,1208)" d="m0 0h5l1 4v4l5 1 3 2v2l5 2 6 4 8 4 5 3 6 9 5 3 9 6 4 4 1 3-5 13h-2l1 2 6-3h3v-2l6-1 1-3 9-3 7-3 1 2-10 6-8 4-5 4-7 5-9 3-4 1 3-5-5 2v2l-11 6-6 2v2l-5 1v2l-4 3-7 2v2l-8 1v2l-7 1v5l-17 9-26 12-16 8-9 3h-13l-5-5 1-9 8-13 7-10 15-24 12-17 11-17 5-7v3l-1 3 2 1 2-5 12-16 9-13 4-5zm-23 24 1 2-5 5 2-4zm-5 7v3z" fill="#2EA5CF"/>
<path transform="translate(1211,207)" d="m0 0h10l5 3 1 2v7l-7 14-10 14-11 17-17 26-4 1-4 3-1 3-5 4-6 10h-2l-2 4-5 7-4 2-1-2h2v-2l2-1 2-3 2-4 3-2v-3l3-3 1-3-7 8h-7l-5-4-6-9-6-7-9-11-6-7-1-5 3-7h2l2-4h2v-2l24-12 12-7 7-3 2-2 6-2 16-8 2-2 4-2v-3l9-4z" fill="#2DA5CF"/>
<path transform="translate(979,756)" d="m0 0h1v56h13l7 16 16 36v4h2l1 3-2 2-9-17-3-1-4 4-5 2-11 4-10 2-6 5-2 4-2 1-3 9h-2l-1 5-8 16 8-7 6-4 5-4 4-1v3l17-4 13-5 3-3h7l4-2v6l-11 1-11 5-7 4-2-1-12 5-6 4-9 2-5 3-7 6h-2v3l-5 3-2 3h-2l-1 3-4 4-5 2-7 6-5 1 3-3 5-3 2-3v-3l8-7 10-10 9-14 7-15 4-13 3-20 1-92 6 12 4 5 2 1z" fill="#1D82C0"/>
<path transform="translate(1060,993)" d="m0 0h2v12l-4 13-8 16-9 11-10 7-29 14-24 11-54 27-33 15-33 16-28 13-25 12-26 12-36 17-32 15-2-1 14-7h2l2-4 6-5 4-4 26-13 7-3 5-2 6-3 2 2 10-6h3v-2l5-2 1-2 9-1 2-2 6-2 7-2 1-2h2v-2l9-3 4-4 7-3 9-3 10-5h3v-2l9-3 5-2 5-4 9-4h3l1-2 2 1v-2l9-4h2v-2l9-4h2l1-2 3 1v-2l8-4 4-1v-2l16-8 5-2 8-4 5-2 5-3 7-1v-2l8-2v-2l8-4 2 1v-2h3v-2l11-4 3 1 9-6h2v-2l4-4h2l2-4 7-12 4-9h2v-5l3-9z" fill="#155EA1"/>
<path transform="translate(711,905)" d="m0 0h4v2l4 2 6 4v2h2l1-2 7 8 12 10 15 9 19 8 19 5 12 2 39 2-4 2h-28l-21-3-8-1h-5l-4-1-6-1v-2l-6-1-1-1-11-2-5-2-11 1-5 8 2 8 1 6-3-4-11-25-12-26z" fill="#1C81BF"/>
<path transform="translate(771,958)" d="m0 0 14 2 18 2 37 2 17-2v2l-7 2-28 2-16 2h-10l-8 1v1l-26 4-10 2h-3-2l1 6 4 2v9h-2l-8-19 2-6h8l9-3v-3l6-5z" fill="#1C80BF"/>
<path transform="translate(835,1143)" d="m0 0 3 1-35 17-24 11-36 17-32 15-2-1 14-7h2l2-4 6-5 4-4 26-13 7-3 5-2 6-3 2 2 10-6h3v-2l5-2 1-2 9-1 2-2 6-2 4-1 3 1z" fill="#1662A4"/>
<path transform="translate(700,664)" d="m0 0 67 1v1h-67v181h-1l-2-26-1-65 1-66 1-23z" fill="#2594C8"/>
<path transform="translate(1017,880)" d="m0 0h1v6l-11 1-11 5-7 4-2-1-12 5-6 4-9 2-5 3-7 6h-2v3l-5 3-2 3h-2l-1 3-4 4-5 2-7 6-5 1 3-3 5-3 5-5 8-6v-3l7-6 2 1 2-4 8-8 10-7 5-4 4-1v3l17-4 13-5 3-3h7z" fill="#1C80BF"/>
<path transform="translate(533,1278)" d="m0 0v3l-1 2 3-2h8v2l-28 13-21 10-12 6h-2v-2l-3-1h3v-2l7-1v-2l8-1v-2l8-4 3-1v-2l5-1v-2l13-7 4-1v-2z" fill="#2187C2"/>
<path transform="translate(768,701)" d="m0 0h2l2 35v10l-1 4-1 45-2 1z" fill="#12549A"/>
<path transform="translate(968,763)" d="m0 0 3 3 6 8 2 1v24l-1 4-3-1 1-9-2-5v-3l-6 1z" fill="#12569B"/>
<path transform="translate(1144,237)" d="m0 0 3 1-7 5-16 7-14 7-19 9-2 2-12 4-10 5-8 3-3-1 33-16 28-13z" fill="#2EA6D0"/>
<path transform="translate(1210,242)" d="m0 0h2l-2 5-11 17-8 12-2 1-2-5 6-9 4-5 4-7 3-3 4-5z" fill="#1E84C1"/>
<path transform="translate(768,825)" d="m0 0 2 3 2 19 5 12 7 10 9 8 16 8v1l-7-1-12-7-9-8-9-14-4-12z" fill="#1B70AD"/>
<path transform="translate(795,953)" d="m0 0 11 1 20 2 25 1-4 2h-28l-21-3-3-1z" fill="#2089C3"/>
<path transform="translate(951,902)" d="m0 0 1 2-3 6-4 5-4 1-5 5v3l-8 6-4 1 1-3 8-7 10-10 5-7z" fill="#2593C7"/>
<path transform="translate(548,1102)" d="m0 0 1 3-20 30-3 2 2-5 8-12 3-7 5-7z" fill="#2A76B0"/>
<path transform="translate(980,813)" d="m0 0h12l3 3 4 10 3 6-1 5-3-4-4-8-3-10-11-1z" fill="#12579C"/>
<path transform="translate(961,876)" d="m0 0 3 1-1 5-1 4h-2l-1 5-6 11-4 2 2-5 8-17z" fill="#218AC3"/>
<path transform="translate(535,1281)" d="m0 0h8v2l-18 8-4-1 1-3 6-1v-2z" fill="#2491C6"/>
<path transform="translate(440,1263)" d="m0 0 1 3-3 4h-2v3h-2l-1 5-5 7-5 3 2-5 12-17z" fill="#65BDDC"/>
<path transform="translate(1048,956)" d="m0 0 8 1-2 2 1 2v8l-2 1v-2h-2l-1-4h-2z" fill="#2EA6D0"/>
<path transform="translate(781,867)" d="m0 0 7 6 10 7 11 5v1l-7-1-12-7-9-8z" fill="#1B6FAC"/>
<path transform="translate(914,940)" d="m0 0 2 2-9 5-5 3-10 4-5 1 5-4 16-8z" fill="#1C80BF"/>
<path transform="translate(425,1288)" d="m0 0 1 3h-2l-1 4-6 9-4 3v-4l4-4 6-9h2z" fill="#1D82C0"/>
<path transform="translate(896,1114)" d="m0 0 4 1-20 9-6 3-2-1 10-6 10-4z" fill="#2491C6"/>
<path transform="translate(413,1340)" d="m0 0 3 1-4 3h-13l-1-3 6 1 1-1z" fill="#1E85C1"/>
<path transform="translate(768,825)" d="m0 0 2 3 1 19-1-3h-2z" fill="#145CA0"/>
<path transform="translate(538,1118)" d="m0 0v3l-9 14-3 2 2-5 9-13z" fill="#12549A"/>
<path transform="translate(533,1278)" d="m0 0v3l-5 6h-6l3-4h3v-2z" fill="#1C81BF"/>
<path transform="translate(747,984)" d="m0 0 4 1 1 2v8h-2l-4-10z" fill="#1D82C0"/>
<path transform="translate(961,876)" d="m0 0 3 1-1 5-1 4-4 1 1-5z" fill="#1F87C1"/>
<path transform="translate(781,867)" d="m0 0 7 6 5 4-1 2-10-8z" fill="#1A6CAA"/>
<path transform="translate(454,1320)" d="m0 0 3 1-1 3-4 2h-5l2-3z" fill="#1E84C0"/>
<path transform="translate(1195,213)" d="m0 0h3v2l-4 4h-4l-1-3z" fill="#228CC4"/>
</svg>
